<svg width="50" height="50" viewBox="0 0 50 50" fill="none" xmlns="http://www.w3.org/2000/svg">
<g clip-path="url(#clip0_1091_394)">
<path d="M41.6667 37.5C42.1977 37.5006 42.7084 37.7039 43.0945 38.0684C43.4806 38.433 43.713 38.9312 43.7441 39.4612C43.7752 39.9913 43.6028 40.5133 43.2619 40.9205C42.9211 41.3277 42.4377 41.5894 41.9104 41.6521L41.6667 41.6667H8.33333C7.80233 41.6661 7.2916 41.4628 6.90548 41.0982C6.51937 40.7337 6.28701 40.2355 6.25589 39.7054C6.22477 39.1753 6.39724 38.6534 6.73805 38.2462C7.07886 37.839 7.5623 37.5773 8.08958 37.5146L8.33333 37.5H41.6667ZM41.6667 22.9167C42.2192 22.9167 42.7491 23.1362 43.1398 23.5269C43.5305 23.9176 43.75 24.4475 43.75 25C43.75 25.5525 43.5305 26.0824 43.1398 26.4731C42.7491 26.8638 42.2192 27.0833 41.6667 27.0833H8.33333C7.7808 27.0833 7.25089 26.8638 6.86019 26.4731C6.46949 26.0824 6.25 25.5525 6.25 25C6.25 24.4475 6.46949 23.9176 6.86019 23.5269C7.25089 23.1362 7.7808 22.9167 8.33333 22.9167H41.6667ZM41.6667 8.33334C42.2192 8.33334 42.7491 8.55284 43.1398 8.94354C43.5305 9.33424 43.75 9.86414 43.75 10.4167C43.75 10.9692 43.5305 11.4991 43.1398 11.8898C42.7491 12.2805 42.2192 12.5 41.6667 12.5H8.33333C7.7808 12.5 7.25089 12.2805 6.86019 11.8898C6.46949 11.4991 6.25 10.9692 6.25 10.4167C6.25 9.86414 6.46949 9.33424 6.86019 8.94354C7.25089 8.55284 7.7808 8.33334 8.33333 8.33334H41.6667Z" fill="#09244B"/>
</g>
<defs>
<clipPath id="clip0_1091_394">
<rect width="50" height="50" fill="white"/>
</clipPath>
</defs>
</svg>
