<svg width="25" height="25" viewBox="0 0 25 25" fill="none" xmlns="http://www.w3.org/2000/svg">
<path fill-rule="evenodd" clip-rule="evenodd" d="M18.7389 16.5408C18.4734 16.2748 18.1131 16.1253 17.7373 16.1253H17.3369C17.2274 16.1253 17.1221 16.0829 17.0433 16.0068C16.8819 15.8512 16.8708 15.5972 17.0097 15.4213C18.2937 13.7955 19.0572 11.7462 19.0572 9.52861C19.0572 4.26589 14.7913 0 9.52861 0C4.26589 0 0 4.26589 0 9.52861C0 14.7913 4.26589 19.0572 9.52861 19.0572C11.7462 19.0572 13.7955 18.2937 15.4213 17.0097C15.5972 16.8708 15.8512 16.8819 16.0068 17.0433C16.0829 17.1221 16.1253 17.2274 16.1253 17.3369V17.7373C16.1253 18.1131 16.2748 18.4734 16.5408 18.7389L22.3618 24.5483C22.9658 25.151 23.9438 25.1505 24.5472 24.5472C25.1505 23.9438 25.151 22.9658 24.5483 22.3618L18.7389 16.5408ZM9.5287 16.1253C5.8785 16.1253 2.93196 13.1788 2.93196 9.52861C2.93196 5.87842 5.8785 2.93188 9.5287 2.93188C13.1789 2.93188 16.1254 5.87842 16.1254 9.52861C16.1254 13.1788 13.1789 16.1253 9.5287 16.1253Z" fill="black"/>
</svg>
