<svg width="50" height="50" viewBox="0 0 50 50" fill="none" xmlns="http://www.w3.org/2000/svg">
<g clip-path="url(#clip0_1084_314)">
<path fill-rule="evenodd" clip-rule="evenodd" d="M31.0976 12.5042C35.0622 12.6542 38.9351 14.5104 41.8226 16.4104L43.4872 17.5333L44.1476 17.9917L44.8226 18.4917C46.4038 19.7021 47.9163 21.225 47.9163 22.9167C47.9163 25.1458 45.933 27.4417 44.0226 29.2292L43.3559 29.8396L42.7143 30.4021L41.8455 31.1417C38.0622 34.3667 32.3934 37.5 24.9997 37.5C17.8705 37.5 12.3434 34.5854 8.56634 31.4896L7.88926 30.9187L6.99759 30.1437L6.34551 29.5521C4.35384 27.7042 2.08301 25.1875 2.08301 22.9187C2.08301 21.2958 3.36634 19.8979 4.81217 18.75L5.48717 18.2396C5.59967 18.1562 5.71217 18.0771 5.82467 17.9979L6.48926 17.5417L7.67676 16.7458C10.6101 14.7354 14.7038 12.6625 18.9018 12.5042C20.2455 12.4542 21.4163 12.8917 22.5601 13.4312L23.4163 13.8479C23.8163 14.0479 24.2184 14.2458 24.6268 14.4312C24.9497 14.575 25.0497 14.575 25.3726 14.4312L25.9809 14.1458L27.4393 13.4312C28.5851 12.8896 29.7518 12.4521 31.0976 12.5042ZM41.0393 26.1771C36.5351 27.5104 30.6726 28.125 24.9997 28.125C19.3268 28.125 13.4643 27.5104 8.96009 26.1771C13.1268 30.5687 18.8893 33.3333 24.9997 33.3333C31.1101 33.3333 36.8726 30.5687 41.0413 26.1771H41.0393ZM30.9393 16.6667C30.1268 16.6354 29.3288 17.0125 28.5622 17.4333L27.8059 17.8583C27.5681 17.9927 27.3249 18.1171 27.0768 18.2312C26.5726 18.4562 25.8226 18.7521 24.9997 18.7521C24.1768 18.7521 23.4268 18.4562 22.9226 18.2312C22.6714 18.1155 22.4254 17.989 22.1851 17.8521L21.4351 17.4292C20.6747 17.0083 19.8872 16.6354 19.0601 16.6667C15.0768 16.8167 11.2643 19.0458 8.23926 21.525C12.1205 23.0875 18.4268 23.9562 24.9997 23.9562C31.5726 23.9562 37.8788 23.0875 41.7601 21.525C38.7351 19.0458 34.9226 16.8167 30.9393 16.6667Z" fill="#09244B"/>
</g>
<defs>
<clipPath id="clip0_1084_314">
<rect width="50" height="50" fill="white"/>
</clipPath>
</defs>
</svg>
