<svg width="50" height="50" viewBox="0 0 50 50" fill="none" xmlns="http://www.w3.org/2000/svg">
<g clip-path="url(#clip0_1084_378)">
<path fill-rule="evenodd" clip-rule="evenodd" d="M14.835 11.0271L7.11207 18.75L10.1912 21.8292L11.8329 19.6375C13.0787 17.9771 15.7225 18.9312 15.6183 21.0062L14.7996 37.3958C14.7855 37.6777 14.8288 37.9595 14.9269 38.2241C15.025 38.4888 15.1758 38.7307 15.3702 38.9353C15.5647 39.1398 15.7986 39.3028 16.058 39.4142C16.3173 39.5256 16.5965 39.5831 16.8787 39.5833H33.1204C33.4026 39.5831 33.6819 39.5256 33.9412 39.4142C34.2005 39.3028 34.4345 39.1398 34.6289 38.9353C34.8233 38.7307 34.9742 38.4888 35.0723 38.2241C35.1704 37.9595 35.2137 37.6777 35.1996 37.3958L34.3808 21.0062C34.2767 18.9312 36.9204 17.9771 38.1662 19.6375L39.8079 21.8292L42.8871 18.75L35.1642 11.0271C34.3746 10.2396 33.2287 10.4167 32.2183 10.4167C31.4871 11.6841 30.4349 12.7364 29.1676 13.4679C27.9004 14.1994 26.4628 14.5841 24.9996 14.5833C23.5364 14.5841 22.0988 14.1994 20.8315 13.4679C19.5643 12.7364 18.5121 11.6841 17.7808 10.4167C16.7683 10.4167 15.6225 10.2396 14.835 11.0271ZM11.8892 8.08125C13.061 6.90907 14.6504 6.25035 16.3079 6.25H18.9579C19.9412 6.25 20.7746 6.86875 21.1037 7.72917C21.4044 8.51884 21.938 9.19849 22.6338 9.67803C23.3295 10.1576 24.1546 10.4144 24.9996 10.4144C25.8446 10.4144 26.6696 10.1576 27.3654 9.67803C28.0611 9.19849 28.5947 8.51884 28.8954 7.72917C29.2246 6.86875 30.0579 6.25 31.0412 6.25H33.6912C35.348 6.25091 36.9366 6.90958 38.1079 8.08125L45.8329 15.8042C46.614 16.5855 47.0528 17.6451 47.0528 18.75C47.0528 19.8549 46.614 20.9145 45.8329 21.6958L42.7537 24.775C41.6704 25.8583 40.1579 26.2104 38.7954 25.8708L39.3621 37.1875C39.4044 38.0335 39.2744 38.8792 38.9798 39.6734C38.6853 40.4676 38.2324 41.1936 37.6486 41.8073C37.0649 42.4211 36.3625 42.9098 35.584 43.2437C34.8056 43.5777 33.9674 43.7499 33.1204 43.75H16.8787C16.0317 43.7499 15.1935 43.5777 14.4151 43.2437C13.6367 42.9098 12.9343 42.4211 12.3505 41.8073C11.7668 41.1936 11.3139 40.4676 11.0193 39.6734C10.7248 38.8792 10.5947 38.0335 10.6371 37.1875L11.2037 25.8708C10.5055 26.0465 9.77369 26.0378 9.07983 25.8457C8.38597 25.6536 7.75388 25.2847 7.2454 24.775L4.16623 21.6958C3.3851 20.9145 2.94629 19.8549 2.94629 18.75C2.94629 17.6451 3.3851 16.5855 4.16623 15.8042L11.8892 8.08125Z" fill="#09244B"/>
</g>
<defs>
<clipPath id="clip0_1084_378">
<rect width="50" height="50" fill="white"/>
</clipPath>
</defs>
</svg>
