<svg width="50" height="50" viewBox="0 0 50 50" fill="none" xmlns="http://www.w3.org/2000/svg">
<g clip-path="url(#clip0_1084_326)">
<path fill-rule="evenodd" clip-rule="evenodd" d="M41.3314 8.92084C42.9772 10.5688 43.7897 12.4854 43.7481 14.5875C43.7127 16.5896 42.9043 18.5333 41.7939 20.3458C40.3147 22.7667 38.0543 25.3208 35.5272 27.9396L34.1272 29.375L32.6897 30.8208L30.0439 33.4625L28.5022 34.9833C25.6856 37.7271 22.9397 40.2063 20.346 41.7938C18.5335 42.9042 16.5897 43.7104 14.5877 43.75C12.4856 43.7917 10.5689 42.9792 8.92099 41.3313C6.44808 38.8583 5.38766 34.3646 6.01057 29.5708C6.62099 24.8708 8.86682 19.5646 13.4377 14.7375L14.1106 14.0458C19.1043 9.06667 24.6668 6.64792 29.5689 6.01042C34.3627 5.38751 38.8585 6.44792 41.3314 8.92084ZM38.3856 11.8688C37.1752 10.6583 34.2022 9.61042 30.1064 10.1417C29.2106 10.2583 28.2752 10.45 27.3147 10.7271C27.8564 11.3521 28.5647 11.8 29.4689 12.1021C29.7318 12.1859 29.9753 12.3212 30.1855 12.4999C30.3957 12.6787 30.5682 12.8974 30.6932 13.1434C30.8181 13.3894 30.893 13.6578 30.9134 13.933C30.9337 14.2081 30.8993 14.4846 30.8119 14.7463C30.7246 15.008 30.5861 15.2498 30.4046 15.4576C30.2231 15.6654 30.0021 15.835 29.7545 15.9567C29.5068 16.0784 29.2375 16.1496 28.9621 16.1664C28.6867 16.1831 28.4107 16.145 28.1502 16.0542C26.046 15.3542 24.4252 14.0917 23.3418 12.3271C21.4476 13.3248 19.6877 14.559 18.1043 16C18.4356 16.4938 18.8793 17.0417 19.4168 17.5792C20.3002 18.4604 21.2043 19.0917 21.8668 19.3771L22.1022 19.4688C22.6266 19.6434 23.0601 20.0191 23.3074 20.5133C23.5547 21.0076 23.5956 21.5798 23.421 22.1042C23.2464 22.6285 22.8706 23.062 22.3764 23.3094C21.8822 23.5567 21.3099 23.5975 20.7856 23.4229C19.2481 22.9104 17.6897 21.7417 16.4731 20.525C16.0107 20.0638 15.5779 19.574 15.1772 19.0583C13.8516 20.6577 12.7356 22.4199 11.8564 24.3021C12.421 25.5604 13.3481 26.3729 14.7377 26.8354C15.2549 27.0157 15.6804 27.3924 15.9219 27.884C16.1635 28.3756 16.2017 28.9426 16.0283 29.4622C15.8549 29.9817 15.4839 30.4122 14.9955 30.6602C14.5072 30.9083 13.9408 30.954 13.4189 30.7875C12.2802 30.4197 11.2243 29.833 10.3106 29.0604C10.2439 29.4146 10.1856 29.7646 10.1439 30.1083C9.61058 34.2063 10.6585 37.1771 11.8689 38.3875C12.7981 39.3167 13.6522 39.6021 14.5085 39.5854C15.4627 39.5667 16.6606 39.1667 18.171 38.2417C20.1543 37.0292 22.3127 35.1479 24.6981 32.8667L26.021 31.5813L28.0939 29.525L30.9106 26.7021L32.2314 25.3563C34.8002 22.7104 36.9168 20.3354 38.2397 18.1729C39.1647 16.6625 39.5647 15.4646 39.5835 14.5104C39.6002 13.6563 39.3147 12.8 38.3856 11.8688Z" fill="#09244B"/>
</g>
<defs>
<clipPath id="clip0_1084_326">
<rect width="50" height="50" fill="white"/>
</clipPath>
</defs>
</svg>
