<svg width="50" height="50" viewBox="0 0 50 50" fill="none" xmlns="http://www.w3.org/2000/svg">
<g clip-path="url(#clip0_1084_358)">
<path d="M35.417 4.16666C36.4682 4.16632 37.4807 4.56334 38.2515 5.27811C39.0223 5.99288 39.4944 6.97258 39.5732 8.02082L39.5837 8.33332V41.6667C39.584 42.7179 39.187 43.7303 38.4722 44.5011C37.7574 45.2719 36.7777 45.7441 35.7295 45.8229L35.417 45.8333H14.5837C13.5325 45.8337 12.52 45.4366 11.7492 44.7219C10.9784 44.0071 10.5062 43.0274 10.4274 41.9792L10.417 41.6667V8.33332C10.4167 7.28212 10.8137 6.26964 11.5284 5.49885C12.2432 4.72805 13.2229 4.25591 14.2712 4.17707L14.5837 4.16666H35.417ZM35.417 8.33332H14.5837V41.6667H35.417V8.33332ZM26.042 33.3333C26.2858 33.3332 26.5219 33.4187 26.7092 33.5748C26.8965 33.7308 27.0231 33.9477 27.067 34.1875L27.0837 34.375V36.4583C27.0837 36.7021 26.9983 36.9382 26.8422 37.1255C26.6861 37.3128 26.4693 37.4394 26.2295 37.4833L26.042 37.5H23.9587C23.7149 37.5001 23.4787 37.4146 23.2915 37.2586C23.1042 37.1025 22.9775 36.8856 22.9337 36.6458L22.917 36.4583V34.375C22.9169 34.1312 23.0023 33.8951 23.1584 33.7078C23.3145 33.5205 23.5313 33.3939 23.7712 33.35L23.9587 33.3333H26.042Z" fill="#09244B"/>
</g>
<defs>
<clipPath id="clip0_1084_358">
<rect width="50" height="50" fill="white"/>
</clipPath>
</defs>
</svg>
