<svg width="50" height="50" viewBox="0 0 50 50" fill="none" xmlns="http://www.w3.org/2000/svg">
<g clip-path="url(#clip0_1084_354)">
<path d="M39.5833 6.25C40.6884 6.25 41.7482 6.68899 42.5296 7.47039C43.311 8.25179 43.75 9.3116 43.75 10.4167V33.3333C43.75 34.4384 43.311 35.4982 42.5296 36.2796C41.7482 37.061 40.6884 37.5 39.5833 37.5H31.25V39.5833H33.3333C33.8859 39.5833 34.4158 39.8028 34.8065 40.1935C35.1972 40.5842 35.4167 41.1141 35.4167 41.6667C35.4167 42.2192 35.1972 42.7491 34.8065 43.1398C34.4158 43.5305 33.8859 43.75 33.3333 43.75H16.6667C16.1141 43.75 15.5842 43.5305 15.1935 43.1398C14.8028 42.7491 14.5833 42.2192 14.5833 41.6667C14.5833 41.1141 14.8028 40.5842 15.1935 40.1935C15.5842 39.8028 16.1141 39.5833 16.6667 39.5833H18.75V37.5H10.4167C9.3116 37.5 8.25179 37.061 7.47039 36.2796C6.68899 35.4982 6.25 34.4384 6.25 33.3333V10.4167C6.25 9.3116 6.68899 8.25179 7.47039 7.47039C8.25179 6.68899 9.3116 6.25 10.4167 6.25H39.5833ZM27.0833 37.5H22.9167V39.5833H27.0833V37.5ZM39.5833 10.4167H10.4167V33.3333H39.5833V10.4167Z" fill="#09244B"/>
</g>
<defs>
<clipPath id="clip0_1084_354">
<rect width="50" height="50" fill="white"/>
</clipPath>
</defs>
</svg>
