<svg width="50" height="50" viewBox="0 0 50 50" fill="none" xmlns="http://www.w3.org/2000/svg">
<g clip-path="url(#clip0_1084_338)">
<path fill-rule="evenodd" clip-rule="evenodd" d="M14.6809 4.22082C14.3998 4.21457 14.1203 4.2653 13.8593 4.36996C13.5983 4.47462 13.3611 4.63103 13.1622 4.82978C12.9633 5.02853 12.8066 5.2655 12.7017 5.5264C12.5968 5.78731 12.5458 6.06676 12.5518 6.3479C12.5851 7.81874 12.9413 9.88957 13.9413 12.0083C14.4976 13.1875 15.2122 14.2458 16.108 15.1417C16.6913 15.725 17.3434 16.2312 18.0518 16.6667H12.4997C11.3946 16.6667 10.3348 17.1056 9.5534 17.887C8.77199 18.6684 8.33301 19.7283 8.33301 20.8333V25C8.33303 25.7371 8.52858 26.461 8.8997 27.0978C9.27082 27.7346 9.80423 28.2616 10.4455 28.625C10.7351 36.2604 13.1018 41.5792 14.2726 43.7708C15.0018 45.1375 16.4038 45.8333 17.7809 45.8333H32.2184C33.5934 45.8333 34.9976 45.1375 35.7268 43.7708C36.8976 41.5792 39.2643 36.2604 39.5538 28.625C40.1951 28.2616 40.7285 27.7346 41.0997 27.0978C41.4708 26.461 41.6663 25.7371 41.6663 25V20.8333C41.6663 19.7283 41.2274 18.6684 40.446 17.887C39.6645 17.1056 38.6047 16.6667 37.4997 16.6667H33.5455C33.9976 16.1937 34.3913 15.6729 34.7184 15.1042C35.1601 14.3396 35.4684 13.5104 35.6559 12.6271C36.0163 10.9646 35.9413 9.25624 35.6122 7.62499L35.3122 6.43749C35.1519 5.95077 34.8179 5.54019 34.374 5.28422C33.9301 5.02825 33.4074 4.94486 32.9059 5.04999C31.5065 5.36547 30.17 5.91334 28.9518 6.67082C27.5851 7.5104 26.4622 8.57082 25.6976 9.89582C25.5934 10.075 25.4997 10.2562 25.4101 10.4417C24.9036 9.4594 24.2503 8.56016 23.4726 7.77499C22.5618 6.87737 21.5024 6.14431 20.3413 5.60832C18.5689 4.76452 16.6426 4.29233 14.6809 4.22082ZM17.1872 8.85415C17.658 8.99999 18.1184 9.16665 18.5622 9.37499C19.3288 9.73749 19.9913 10.1854 20.5288 10.7229C21.0643 11.2583 21.5122 11.9208 21.8747 12.6875C22.0705 13.1396 22.2497 13.5896 22.3934 14.0625C21.9229 13.9229 21.4633 13.7488 21.0184 13.5417C20.2909 13.2095 19.6263 12.7542 19.0538 12.1958C18.4952 11.6227 18.0399 10.9574 17.708 10.2292C17.4997 9.7854 17.333 9.32499 17.1872 8.85415ZM31.7122 9.89582L31.7247 10.375C31.7247 10.85 31.6788 11.3125 31.5851 11.75C31.494 12.1958 31.3337 12.6246 31.1101 13.0208C30.7247 13.6875 30.0997 14.2792 29.283 14.7812L28.7018 15.1021L28.6913 14.6271C28.6913 14.1521 28.7372 13.6896 28.833 13.25C28.9351 12.7771 29.0913 12.3521 29.3059 11.9792C29.6913 11.3125 30.3163 10.7229 31.133 10.2187L31.7122 9.89582ZM14.6413 29.1667H35.358C34.9955 35.4646 33.0809 39.8437 32.1268 41.6667H17.8726C16.9184 39.8437 15.0018 35.4646 14.6413 29.1667ZM37.4997 25H12.4997V20.8333H37.4997V25Z" fill="#09244B"/>
</g>
<defs>
<clipPath id="clip0_1084_338">
<rect width="50" height="50" fill="white"/>
</clipPath>
</defs>
</svg>
