<svg width="50" height="50" viewBox="0 0 50 50" fill="none" xmlns="http://www.w3.org/2000/svg">
<g clip-path="url(#clip0_1084_342)">
<path d="M33.4058 6.28126C34.5277 5.15917 36.0342 4.50575 37.6201 4.45352C39.2059 4.4013 40.7522 4.95417 41.9454 6.00001L42.2454 6.28126L43.7183 7.75418C44.8398 8.87589 45.4929 10.3821 45.5451 11.9674C45.5973 13.5527 45.0448 15.0986 43.9996 16.2917L43.7183 16.5917L20.36 39.9521C20.0297 40.2823 19.6297 40.5343 19.1892 40.6896L18.8517 40.7875L9.5725 42.9292C9.24743 43.0043 8.90908 43.0003 8.58586 42.9176C8.26264 42.8348 7.96399 42.6758 7.71499 42.4537C7.46598 42.2316 7.27389 41.9531 7.15485 41.6414C7.0358 41.3297 6.99327 40.994 7.03084 40.6625L7.0725 40.4271L9.21209 31.1458C9.31779 30.6906 9.52424 30.2649 9.81625 29.9L10.0475 29.6396L33.4058 6.28126ZM31.9329 13.6458L13.2038 32.375L11.8788 38.1208L17.6246 36.7938L36.3538 18.0646L31.9329 13.6458ZM39.2996 9.22709C38.9409 8.86839 38.4636 8.65291 37.9573 8.62108C37.451 8.58924 36.9504 8.74324 36.5496 9.05418L36.3538 9.22709L34.8788 10.7L39.2996 15.1188L40.7725 13.6458C41.1312 13.2871 41.3467 12.8098 41.3785 12.3035C41.4104 11.7972 41.2564 11.2967 40.9454 10.8958L40.7725 10.7L39.2996 9.22709Z" fill="#09244B"/>
</g>
<defs>
<clipPath id="clip0_1084_342">
<rect width="50" height="50" fill="white"/>
</clipPath>
</defs>
</svg>
