<svg width="50" height="50" viewBox="0 0 50 50" fill="none" xmlns="http://www.w3.org/2000/svg">
<g clip-path="url(#clip0_1084_366)">
<path fill-rule="evenodd" clip-rule="evenodd" d="M30.883 9.51459C31.1894 9.05917 31.3037 8.50123 31.201 7.96202C31.0983 7.42282 30.787 6.94591 30.3347 6.63495C29.8824 6.32398 29.3256 6.20409 28.7854 6.30131C28.2452 6.39853 27.7652 6.70502 27.4497 7.15418L24.9997 10.7167L22.5497 7.15418C22.396 6.92571 22.1985 6.72998 21.9687 6.5783C21.7389 6.42662 21.4813 6.32201 21.2108 6.2705C20.9403 6.219 20.6623 6.22163 20.3928 6.27824C20.1233 6.33485 19.8677 6.44432 19.6408 6.60031C19.4139 6.75631 19.2202 6.95574 19.0708 7.18707C18.9215 7.41841 18.8195 7.67705 18.7707 7.94805C18.7219 8.21905 18.7274 8.49704 18.7867 8.76592C18.846 9.03481 18.9581 9.28927 19.1163 9.51459L22.4705 14.3938L5.15592 39.5833H4.16634C3.61381 39.5833 3.0839 39.8028 2.6932 40.1935C2.3025 40.5842 2.08301 41.1141 2.08301 41.6667C2.08301 42.2192 2.3025 42.7491 2.6932 43.1398C3.0839 43.5305 3.61381 43.75 4.16634 43.75H45.833C46.3855 43.75 46.9154 43.5305 47.3061 43.1398C47.6968 42.7491 47.9163 42.2192 47.9163 41.6667C47.9163 41.1141 47.6968 40.5842 47.3061 40.1935C46.9154 39.8028 46.3855 39.5833 45.833 39.5833H44.8455L27.5288 14.3958L30.883 9.51459ZM33.3038 39.5833H39.7893L24.9997 18.0708L10.2101 39.5833H16.6976L23.2705 30.0896C23.4642 29.8103 23.7226 29.582 24.0238 29.4244C24.3249 29.2667 24.6598 29.1844 24.9997 29.1844C25.3396 29.1844 25.6744 29.2667 25.9756 29.4244C26.2767 29.582 26.5352 29.8103 26.7288 30.0896L33.3038 39.5833ZM21.7643 39.5833H28.2351L24.9997 34.9104L21.7643 39.5833Z" fill="#09244B"/>
</g>
<defs>
<clipPath id="clip0_1084_366">
<rect width="50" height="50" fill="white"/>
</clipPath>
</defs>
</svg>
