<svg width="50" height="50" viewBox="0 0 50 50" fill="none" xmlns="http://www.w3.org/2000/svg">
<g clip-path="url(#clip0_1084_350)">
<path fill-rule="evenodd" clip-rule="evenodd" d="M36.4066 7.59167C36.9543 7.31769 37.5557 7.16782 38.168 7.15272C38.7802 7.13763 39.3883 7.25769 39.9488 7.50435C40.5094 7.75102 41.0087 8.11822 41.4112 8.57982C41.8136 9.04142 42.1094 9.58607 42.2774 10.175L45.7545 22.3438C45.8586 22.7084 45.8611 23.0945 45.7619 23.4604C45.6627 23.8264 45.4655 24.1584 45.1915 24.4205C44.9176 24.6827 44.5773 24.8651 44.2073 24.9481C43.8373 25.0312 43.4517 25.0116 43.092 24.8917L39.8483 23.8125C40.1504 33.9792 34.6837 39.9021 31.8899 42.2396C30.5504 43.3563 28.9191 43.75 27.4358 43.75H22.5649C21.0816 43.75 19.4504 43.3563 18.1129 42.2396C15.4191 39.9896 10.2462 34.4063 10.142 24.9083L7.4066 26.7333C7.05667 26.9668 6.64426 27.0889 6.22362 27.0835C5.80298 27.0781 5.39383 26.9455 5.05 26.7031C4.70617 26.4608 4.44376 26.12 4.29731 25.7256C4.15087 25.3313 4.12723 24.9018 4.22952 24.4938L7.76702 10.3479C7.91835 9.74277 8.20362 9.17931 8.60179 8.69913C8.99996 8.21895 9.50087 7.83429 10.0675 7.57355C10.6342 7.3128 11.2522 7.18262 11.8759 7.19261C12.4996 7.2026 13.1131 7.3525 13.6712 7.63125L18.8024 10.1958C19.0915 10.3407 19.4103 10.4163 19.7337 10.4167H30.267C30.5904 10.4163 30.9092 10.3407 31.1983 10.1958L36.4066 7.59167ZM38.2691 11.3208L33.0608 13.925C32.1938 14.3579 31.2381 14.5833 30.2691 14.5833H19.7337C18.7638 14.5829 17.8073 14.3568 16.9399 13.9229L11.8087 11.3583L9.57952 20.2771L11.3441 19.1C11.6787 18.8768 12.0707 18.7552 12.4729 18.7499C12.8751 18.7446 13.2702 18.8558 13.6106 19.0701C13.9509 19.2845 14.222 19.5928 14.3909 19.9578C14.5599 20.3228 14.6196 20.7289 14.5629 21.1271C13.0983 31.3729 18.3462 37.0042 20.7837 39.0417C21.1837 39.375 21.7837 39.5833 22.5649 39.5833H27.4358C28.2191 39.5833 28.817 39.375 29.217 39.0417C31.6545 37.0042 36.9024 31.375 35.4379 21.1271C35.3877 20.7756 35.4282 20.4171 35.5555 20.0857C35.6829 19.7543 35.8928 19.4609 36.1654 19.2334C36.438 19.0059 36.7642 18.8518 37.113 18.7858C37.4619 18.7198 37.8218 18.744 38.1587 18.8563L40.6629 19.6896L38.2691 11.3208ZM22.917 22.9167C22.917 23.4692 22.6975 23.9991 22.3068 24.3898C21.9161 24.7805 21.3862 25 20.8337 25C20.2812 25 19.7512 24.7805 19.3605 24.3898C18.9698 23.9991 18.7504 23.4692 18.7504 22.9167C18.7504 22.3641 18.9698 21.8342 19.3605 21.4435C19.7512 21.0528 20.2812 20.8333 20.8337 20.8333C21.3862 20.8333 21.9161 21.0528 22.3068 21.4435C22.6975 21.8342 22.917 22.3641 22.917 22.9167ZM29.167 25C29.7196 25 30.2495 24.7805 30.6402 24.3898C31.0309 23.9991 31.2504 23.4692 31.2504 22.9167C31.2504 22.3641 31.0309 21.8342 30.6402 21.4435C30.2495 21.0528 29.7196 20.8333 29.167 20.8333C28.6145 20.8333 28.0846 21.0528 27.6939 21.4435C27.3032 21.8342 27.0837 22.3641 27.0837 22.9167C27.0837 23.4692 27.3032 23.9991 27.6939 24.3898C28.0846 24.7805 28.6145 25 29.167 25ZM25.0004 28.125C25.5529 28.125 26.0828 28.3445 26.4735 28.7352C26.8642 29.1259 27.0837 29.6558 27.0837 30.2083C27.0837 30.4846 27.1934 30.7496 27.3888 30.9449C27.5841 31.1403 27.8491 31.25 28.1254 31.25C28.6779 31.25 29.2078 31.4695 29.5985 31.8602C29.9892 32.2509 30.2087 32.7808 30.2087 33.3333C30.2087 33.8859 29.9892 34.4158 29.5985 34.8065C29.2078 35.1972 28.6779 35.4167 28.1254 35.4167C26.9981 35.4185 25.901 35.0528 25.0004 34.375C24.1295 35.0292 23.0483 35.4167 21.8754 35.4167C21.3228 35.4167 20.7929 35.1972 20.4022 34.8065C20.0115 34.4158 19.792 33.8859 19.792 33.3333C19.792 32.7808 20.0115 32.2509 20.4022 31.8602C20.7929 31.4695 21.3228 31.25 21.8754 31.25C22.1516 31.25 22.4166 31.1403 22.6119 30.9449C22.8073 30.7496 22.917 30.4846 22.917 30.2083C22.917 29.6558 23.1365 29.1259 23.5272 28.7352C23.9179 28.3445 24.4478 28.125 25.0004 28.125Z" fill="#09244B"/>
</g>
<defs>
<clipPath id="clip0_1084_350">
<rect width="50" height="50" fill="white"/>
</clipPath>
</defs>
</svg>
