<svg width="50" height="50" viewBox="0 0 50 50" fill="none" xmlns="http://www.w3.org/2000/svg">
<g clip-path="url(#clip0_1084_334)">
<path fill-rule="evenodd" clip-rule="evenodd" d="M14.5837 12.5C14.5837 11.9475 14.8032 11.4176 15.1939 11.0269C15.5846 10.6362 16.1145 10.4167 16.667 10.4167H18.7503V12.5C18.7503 13.0525 18.9698 13.5824 19.3605 13.9731C19.7512 14.3638 20.2811 14.5833 20.8337 14.5833C21.3862 14.5833 21.9161 14.3638 22.3068 13.9731C22.6975 13.5824 22.917 13.0525 22.917 12.5V10.4167C22.917 9.3116 22.478 8.25179 21.6966 7.47039C20.9152 6.68899 19.8554 6.25 18.7503 6.25H16.667C15.0094 6.25 13.4197 6.90848 12.2476 8.08058C11.0755 9.25269 10.417 10.8424 10.417 12.5V22.9167H8.33366C7.22859 22.9167 6.16878 23.3557 5.38738 24.1371C4.60598 24.9185 4.16699 25.9783 4.16699 27.0833V29.1667C4.16584 31.2049 4.66363 33.2124 5.61689 35.014C6.57016 36.8156 7.94993 38.3565 9.63574 39.5021L8.94408 40.1937C8.7451 40.3859 8.58639 40.6158 8.4772 40.87C8.36801 41.1242 8.31054 41.3975 8.30814 41.6742C8.30574 41.9508 8.35845 42.2251 8.4632 42.4812C8.56795 42.7372 8.72264 42.9698 8.91825 43.1654C9.11386 43.361 9.34647 43.5157 9.60251 43.6205C9.85854 43.7252 10.1329 43.7779 10.4095 43.7755C10.6861 43.7731 10.9595 43.7156 11.2137 43.6065C11.4678 43.4973 11.6977 43.3386 11.8899 43.1396L13.7149 41.3167C14.6607 41.5458 15.6503 41.6667 16.667 41.6667H33.3337C34.3503 41.6667 35.3399 41.5458 36.2857 41.3167L38.1107 43.1396C38.5037 43.5191 39.0299 43.7291 39.5762 43.7243C40.1224 43.7196 40.6449 43.5005 41.0312 43.1142C41.4175 42.7279 41.6366 42.2054 41.6413 41.6592C41.6461 41.1129 41.4361 40.5867 41.0566 40.1937L40.3649 39.5021C42.0507 38.3565 43.4305 36.8156 44.3838 35.014C45.337 33.2124 45.8348 31.2049 45.8337 29.1667V27.0833C45.8337 25.9783 45.3947 24.9185 44.6133 24.1371C43.8319 23.3557 42.7721 22.9167 41.667 22.9167H14.5837V12.5ZM8.33366 27.0833H41.667V29.1667C41.667 31.3768 40.789 33.4964 39.2262 35.0592C37.6634 36.622 35.5438 37.5 33.3337 37.5H16.667C14.4569 37.5 12.3372 36.622 10.7744 35.0592C9.21163 33.4964 8.33366 31.3768 8.33366 29.1667V27.0833Z" fill="#09244B"/>
</g>
<defs>
<clipPath id="clip0_1084_334">
<rect width="50" height="50" fill="white"/>
</clipPath>
</defs>
</svg>
