<svg width="50" height="50" viewBox="0 0 50 50" fill="none" xmlns="http://www.w3.org/2000/svg">
<g clip-path="url(#clip0_1084_390)">
<path fill-rule="evenodd" clip-rule="evenodd" d="M27.6037 5.34793L40.7162 12.9188C41.508 13.3759 42.1654 14.0333 42.6226 14.8251C43.0797 15.6168 43.3204 16.515 43.3204 17.4292V32.5708C43.3204 33.4851 43.0797 34.3832 42.6226 35.1749C42.1654 35.9667 41.508 36.6242 40.7162 37.0813L27.6037 44.6521C26.8119 45.1092 25.9138 45.3499 24.9995 45.3499C24.0853 45.3499 23.1871 45.1092 22.3954 44.6521L9.28288 37.0813C8.49113 36.6242 7.83365 35.9667 7.37653 35.1749C6.9194 34.3832 6.67873 33.4851 6.67871 32.5708V17.4292C6.67873 16.515 6.9194 15.6168 7.37653 14.8251C7.83365 14.0333 8.49113 13.3759 9.28288 12.9188L22.3954 5.34793C23.1871 4.8908 24.0853 4.65015 24.9995 4.65015C25.9138 4.65015 26.8119 4.8908 27.6037 5.34793ZM10.8454 19.2333V32.5708C10.8454 32.7537 10.8935 32.9333 10.9849 33.0917C11.0764 33.25 11.2079 33.3815 11.3662 33.4729L22.9162 40.1396V26.1667L10.8454 19.2333ZM39.1537 19.2333L27.0829 26.1667V40.1438L38.6329 33.475C38.7642 33.3991 38.8773 33.2955 38.9644 33.1714C39.0515 33.0472 39.1104 32.9055 39.137 32.7563L39.1537 32.5729V19.2333ZM24.4787 8.95835L12.9287 15.625L24.4787 22.2938C24.6371 22.3852 24.8167 22.4333 24.9995 22.4333C25.1824 22.4333 25.362 22.3852 25.5204 22.2938L37.0704 15.625L25.5204 8.95626C25.362 8.86484 25.1824 8.81671 24.9995 8.81671C24.8167 8.81671 24.6371 8.86484 24.4787 8.95626V8.95835Z" fill="#09244B"/>
</g>
<defs>
<clipPath id="clip0_1084_390">
<rect width="50" height="50" fill="white"/>
</clipPath>
</defs>
</svg>
