<svg width="50" height="50" viewBox="0 0 50 50" fill="none" xmlns="http://www.w3.org/2000/svg">
<g clip-path="url(#clip0_1084_382)">
<path fill-rule="evenodd" clip-rule="evenodd" d="M18.75 10.4167C18.75 9.3116 19.189 8.25179 19.9704 7.47039C20.7518 6.68899 21.8116 6.25 22.9167 6.25H27.0833C28.1884 6.25 29.2482 6.68899 30.0296 7.47039C30.811 8.25179 31.25 9.3116 31.25 10.4167V18.75H39.5833C40.6884 18.75 41.7482 19.189 42.5296 19.9704C43.311 20.7518 43.75 21.8116 43.75 22.9167V27.0833C43.75 28.1884 43.311 29.2482 42.5296 30.0296C41.7482 30.811 40.6884 31.25 39.5833 31.25H31.25V39.5833C31.25 40.6884 30.811 41.7482 30.0296 42.5296C29.2482 43.311 28.1884 43.75 27.0833 43.75H22.9167C21.8116 43.75 20.7518 43.311 19.9704 42.5296C19.189 41.7482 18.75 40.6884 18.75 39.5833V31.25H10.4167C9.3116 31.25 8.25179 30.811 7.47039 30.0296C6.68899 29.2482 6.25 28.1884 6.25 27.0833V22.9167C6.25 21.8116 6.68899 20.7518 7.47039 19.9704C8.25179 19.189 9.3116 18.75 10.4167 18.75H18.75V10.4167ZM27.0833 10.4167H22.9167V20.8333C22.9167 21.3859 22.6972 21.9158 22.3065 22.3065C21.9158 22.6972 21.3859 22.9167 20.8333 22.9167H10.4167V27.0833H20.8333C21.3859 27.0833 21.9158 27.3028 22.3065 27.6935C22.6972 28.0842 22.9167 28.6141 22.9167 29.1667V39.5833H27.0833V29.1667C27.0833 28.6141 27.3028 28.0842 27.6935 27.6935C28.0842 27.3028 28.6141 27.0833 29.1667 27.0833H39.5833V22.9167H29.1667C28.6141 22.9167 28.0842 22.6972 27.6935 22.3065C27.3028 21.9158 27.0833 21.3859 27.0833 20.8333V10.4167Z" fill="#09244B"/>
</g>
<defs>
<clipPath id="clip0_1084_382">
<rect width="50" height="50" fill="white"/>
</clipPath>
</defs>
</svg>
