<svg width="50" height="50" viewBox="0 0 50 50" fill="none" xmlns="http://www.w3.org/2000/svg">
<g clip-path="url(#clip0_1084_346)">
<path d="M25.0003 4.16666C36.5066 4.16666 45.8337 13.4937 45.8337 25C45.8337 36.5062 36.5066 45.8333 25.0003 45.8333C13.4941 45.8333 4.16699 36.5062 4.16699 25C4.16699 13.4937 13.4941 4.16666 25.0003 4.16666ZM32.1003 9.91666L26.2253 14.1854C25.9064 14.4173 25.5282 14.5539 25.1347 14.5793C24.7412 14.6048 24.3486 14.518 24.0024 14.3292L23.7753 14.1854L17.9003 9.91666C16.2127 10.7134 14.6705 11.7873 13.3378 13.0937L12.8503 13.5917L15.0941 20.4937C15.216 20.8687 15.2291 21.2705 15.1317 21.6526C15.0344 22.0346 14.8306 22.3812 14.5441 22.6521L14.3357 22.8229L8.46283 27.0896C8.70033 28.9854 9.25449 30.7792 10.0732 32.4208L10.392 33.0292H17.6524C18.051 33.0289 18.4413 33.1431 18.7769 33.358C19.1126 33.5729 19.3796 33.8796 19.5462 34.2417L19.6337 34.4687L21.8795 41.375C23.6866 41.7172 25.5378 41.7594 27.3587 41.5L28.1232 41.375L30.367 34.4687C30.4901 34.09 30.7192 33.7545 31.0271 33.5019C31.3351 33.2493 31.709 33.0903 32.1045 33.0437L32.3482 33.0292H39.6087C40.492 31.425 41.1191 29.6646 41.4337 27.7958L41.5378 27.0896L35.6628 22.8229C35.3437 22.5911 35.0969 22.2734 34.9512 21.9068C34.8056 21.5402 34.7669 21.1397 34.8399 20.7521L34.9066 20.4937L37.1503 13.5917C35.8744 12.2323 34.3802 11.0958 32.7295 10.2292L32.1003 9.91666ZM23.7753 17.0646C24.0943 16.8327 24.4725 16.6961 24.866 16.6707C25.2595 16.6452 25.6521 16.732 25.9982 16.9208L26.2253 17.0646L32.1691 21.3833C32.4879 21.615 32.7344 21.9324 32.8801 22.2986C33.0257 22.6647 33.0645 23.0647 32.992 23.4521L32.9253 23.7125L30.6545 30.7C30.5314 31.0787 30.3023 31.4143 29.9943 31.6668C29.6864 31.9194 29.3125 32.0784 28.917 32.125L28.6732 32.1396H21.3274C20.9288 32.1398 20.5386 32.0257 20.2029 31.8108C19.8672 31.5958 19.6003 31.2892 19.4337 30.9271L19.3462 30.7L17.0753 23.7125C16.9534 23.3376 16.9403 22.9357 17.0377 22.5537C17.135 22.1716 17.3388 21.825 17.6253 21.5542L17.8337 21.3833L23.7753 17.0646Z" fill="#09244B"/>
</g>
<defs>
<clipPath id="clip0_1084_346">
<rect width="50" height="50" fill="white"/>
</clipPath>
</defs>
</svg>
