<svg width="50" height="50" viewBox="0 0 50 50" fill="none" xmlns="http://www.w3.org/2000/svg">
<g clip-path="url(#clip0_1084_374)">
<path fill-rule="evenodd" clip-rule="evenodd" d="M14.1622 6.00833C16.7194 4.9841 19.5144 4.70488 22.2237 5.20299C24.933 5.7011 27.4459 6.95618 29.4716 8.82299C31.4973 10.6898 32.953 13.092 33.6703 15.7517C34.3876 18.4114 34.3371 21.2199 33.5247 23.8521L42.6789 31.5979C43.5034 32.2986 44.1739 33.1626 44.648 34.1354C45.122 35.1081 45.3894 36.1686 45.4332 37.2498C45.477 38.331 45.2964 39.4096 44.9026 40.4175C44.5088 41.4254 43.9105 42.3409 43.1453 43.106C42.3801 43.8712 41.4647 44.4695 40.4568 44.8633C39.4489 45.2571 38.3703 45.4378 37.2891 45.3939C36.2078 45.3501 35.1474 45.0827 34.1747 44.6087C33.2019 44.1346 32.3379 43.4642 31.6372 42.6396L23.8934 33.4854C21.261 34.2981 18.4523 34.3487 15.7923 33.6314C13.1323 32.914 10.7298 31.4581 8.86287 29.4321C6.99596 27.406 5.74095 24.8927 5.24309 22.1831C4.74524 19.4734 5.02489 16.6782 6.04969 14.1208C6.79552 12.2583 9.13302 12.0229 10.3476 13.3437L17.0205 20.5896L20.033 19.9896L20.6372 16.9708L13.3872 10.3083C12.0664 9.09375 12.2976 6.75416 14.1622 6.00833ZM18.3434 9.20833L24.0997 14.5C24.7705 15.1167 25.0705 16.0375 24.8914 16.9271L23.9122 21.8312C23.8113 22.3359 23.5631 22.7994 23.199 23.1632C22.8349 23.5269 22.3712 23.7746 21.8664 23.875L16.9705 24.8479C16.5324 24.935 16.0791 24.908 15.6545 24.7693C15.2298 24.6307 14.8479 24.3851 14.5455 24.0562L9.24552 18.3021C9.02979 20.094 9.28318 21.9113 9.98089 23.5759C10.6786 25.2405 11.7967 26.6954 13.2257 27.798C14.6546 28.9006 16.3455 29.6131 18.1326 29.8658C19.9197 30.1185 21.7419 29.9027 23.4205 29.2396C23.9296 29.0376 24.4893 29.0003 25.0207 29.1329C25.5521 29.2656 26.0286 29.5616 26.383 29.9792L34.8205 39.95C35.1478 40.3383 35.5521 40.6544 36.0079 40.8783C36.4636 41.1021 36.961 41.2289 37.4683 41.2505C37.9756 41.2721 38.4819 41.1881 38.9551 41.0038C39.4283 40.8195 39.858 40.5389 40.2171 40.1799C40.5761 39.8208 40.8567 39.3911 41.041 38.9179C41.2253 38.4447 41.3093 37.9384 41.2877 37.4311C41.2661 36.9238 41.1393 36.4264 40.9155 35.9707C40.6916 35.5149 40.3755 35.1106 39.9872 34.7833L30.0184 26.3458C29.6008 25.9914 29.3049 25.515 29.1722 24.9835C29.0395 24.4521 29.0768 23.8924 29.2789 23.3833C29.9427 21.7047 30.159 19.8824 29.9065 18.095C29.6541 16.3076 28.9416 14.6164 27.8388 13.1872C26.7361 11.7581 25.2809 10.64 23.616 9.94245C21.9511 9.24494 20.1335 8.99197 18.3414 9.20833H18.3434Z" fill="#09244B"/>
</g>
<defs>
<clipPath id="clip0_1084_374">
<rect width="50" height="50" fill="white"/>
</clipPath>
</defs>
</svg>
