<svg width="50" height="50" viewBox="0 0 50 50" fill="none" xmlns="http://www.w3.org/2000/svg">
<g clip-path="url(#clip0_1084_362)">
<path fill-rule="evenodd" clip-rule="evenodd" d="M35.3125 8.34791C35.692 7.95499 35.902 7.42873 35.8972 6.88249C35.8925 6.33625 35.6734 5.81372 35.2871 5.42746C34.9009 5.04119 34.3783 4.82209 33.8321 4.81734C33.2858 4.81259 32.7596 5.02258 32.3667 5.40208L24.2625 13.5042C24.0672 13.6994 23.8023 13.8091 23.526 13.8091C23.2498 13.8091 22.9849 13.6994 22.7896 13.5042L17.6333 8.34791C17.2389 7.97752 16.7158 7.77511 16.1748 7.78351C15.6338 7.79191 15.1173 8.01047 14.7346 8.39293C14.3518 8.77539 14.1329 9.29176 14.1241 9.83276C14.1153 10.3738 14.3174 10.897 14.6875 11.2917L17.6333 14.2375C17.7521 14.3562 17.875 14.4708 17.9979 14.5812H10.4167C9.3116 14.5812 8.25179 15.0202 7.47039 15.8016C6.68899 16.583 6.25 17.6428 6.25 18.7479V39.5812C6.25 40.6863 6.68899 41.7461 7.47039 42.5275C8.25179 43.3089 9.3116 43.7479 10.4167 43.7479H39.5833C40.6884 43.7479 41.7482 43.3089 42.5296 42.5275C43.311 41.7461 43.75 40.6863 43.75 39.5812V18.75C43.75 17.6449 43.311 16.5851 42.5296 15.8037C41.7482 15.0223 40.6884 14.5833 39.5833 14.5833H29.0562C29.1812 14.4729 29.3 14.3583 29.4187 14.2396L35.3125 8.34791ZM10.4167 18.75H39.5833V39.5833H10.4167V18.75Z" fill="#09244B"/>
</g>
<defs>
<clipPath id="clip0_1084_362">
<rect width="50" height="50" fill="white"/>
</clipPath>
</defs>
</svg>
